<?xml version="1.0" encoding="utf-8"?>
<!-- Generator: Adobe Illustrator 22.0.0, SVG Export Plug-In . SVG Version: 6.00 Build 0)  -->
<svg version="1.1" id="Capa_1" xmlns="http://www.w3.org/2000/svg" xmlns:xlink="http://www.w3.org/1999/xlink" x="0px" y="0px"
	 viewBox="0 0 512 512" style="enable-background:new 0 0 512 512;" xml:space="preserve">
<style type="text/css">
	.st0{fill:#F91D81;}
</style>
<g>
	<g>
		<path class="st0" d="M461.9,201.1c6.3-78.3-58.8-140.4-131.5-140.4c-26.7,0-52.3,8-74.3,23.1c-22.1-15.1-47.6-23.1-74.3-23.1
			c-72.9,0-136.8,60.1-131.5,140.4H0v16.5h54c27.2,89.3,202,233.7,202,233.7s173.4-142.5,202-233.7h54v-16.5H461.9z M256,429.8
			c-27.9-24-157.4-137.9-184.7-212.2h40.9l26.2-46l34.4,103l17.6-44l33.8,75.9L273.3,159l30.7,76.8l39.3-63l24,104.1l49.5-59.4h24
			C413.4,291.9,283.9,405.8,256,429.8z M445.2,201.1H409l-33.1,39.7l-25.5-110.6l-43.2,69.1L271.8,111l-50,149.9l-32.4-72.8
			l-15.4,38.5l-31.7-95.2L102.5,201H66.8C63,128.5,117.9,77.2,181.7,77.2c44.4,0,74.3,27,74.3,27s29.7-27,74.3-27
			C394.1,77.2,451.5,132.1,445.2,201.1z"/>
	</g>
</g>
</svg>
