<?xml version="1.0" encoding="utf-8"?>
<!-- Generator: Adobe Illustrator 22.0.0, SVG Export Plug-In . SVG Version: 6.00 Build 0)  -->
<svg version="1.1" id="Capa_1" xmlns="http://www.w3.org/2000/svg" xmlns:xlink="http://www.w3.org/1999/xlink" x="0px" y="0px"
	 viewBox="0 0 512 512" style="enable-background:new 0 0 512 512;" xml:space="preserve">
<style type="text/css">
	.st0{fill:#F91D81;}
</style>
<g>
	<g>
		<path class="st0" d="M445.9,49.6V0.1h-66v49.6H132.1V0.1H66v49.6H0v424.5l37.9,37.8h436.2l37.9-37.9V49.6H445.9z M396.3,16.6h33.1
			v66h-33.1V16.6z M82.5,16.6h33.1v66H82.5V16.6z M16.5,66.1H66v33.1h66V66.1h247.7v33.1h66V66.1h49.6v49.6H16.5V66.1z M495.4,467.2
			l-28.2,28.2H44.7l-28.2-28.2V132.2h478.8V467.2z"/>
	</g>
</g>
<g>
	<g>
		<rect x="247.7" y="82.6" class="st0" width="16.5" height="16.5"/>
	</g>
</g>
<g>
	<g>
		<rect x="280.7" y="82.6" class="st0" width="16.5" height="16.5"/>
	</g>
</g>
<g>
	<g>
		<rect x="214.6" y="82.6" class="st0" width="16.5" height="16.5"/>
	</g>
</g>
<g>
	<g>
		<path class="st0" d="M156.9,165.2v82.5h82.5v-82.5L156.9,165.2L156.9,165.2z M223,231.3h-49.6v-49.6H223V231.3z"/>
	</g>
</g>
<g>
	<g>
		<path class="st0" d="M272.5,165.2v82.5H355v-82.5L272.5,165.2L272.5,165.2z M338.6,231.3H289v-49.6h49.6V231.3z"/>
	</g>
</g>
<g>
	<g>
		<path class="st0" d="M388.1,165.2v82.5h82.5v-82.5L388.1,165.2L388.1,165.2z M454.2,231.3h-49.6v-49.6h49.6V231.3z"/>
	</g>
</g>
<g>
	<g>
		<path class="st0" d="M41.3,272.5v82.5h82.5v-82.5H41.3z M107.4,338.6H57.8v-49.6h49.6C107.4,289.1,107.4,338.6,107.4,338.6z"/>
	</g>
</g>
<g>
	<g>
		<path class="st0" d="M156.9,272.5v82.5h82.5v-82.5H156.9z M223,338.6h-49.6v-49.6H223V338.6z"/>
	</g>
</g>
<g>
	<g>
		<path class="st0" d="M272.5,272.5v82.5H355v-82.5H272.5z M338.6,338.6H289v-49.6h49.6V338.6z"/>
	</g>
</g>
<g>
	<g>
		<path class="st0" d="M388.1,272.5v82.5h82.5v-82.5H388.1z M454.2,338.6h-49.6v-49.6h49.6V338.6z"/>
	</g>
</g>
<g>
	<g>
		<path class="st0" d="M41.3,379.8v82.5h82.5v-82.5H41.3z M107.4,445.9H57.8v-49.6h49.6C107.4,396.4,107.4,445.9,107.4,445.9z"/>
	</g>
</g>
<g>
	<g>
		<path class="st0" d="M156.9,379.8v82.5h82.5v-82.5H156.9z M223,445.9h-49.6v-49.6H223V445.9z"/>
	</g>
</g>
<g>
	<g>
		<path class="st0" d="M272.5,379.8v82.5H355v-82.5H272.5z M338.6,445.9H289v-49.6h49.6V445.9z"/>
	</g>
</g>
</svg>
